<svg width="802" height="554" viewBox="0 0 802 554" fill="none" xmlns="http://www.w3.org/2000/svg">
<g>
<rect x="300" y="202" width="50" height="50" stroke="white" stroke-width="3"/>
<rect x="350" y="202" width="50" height="50" stroke="white" stroke-width="3"/>
<rect x="350" y="252" width="50" height="50" stroke="white" stroke-width="3"/>
<rect x="300" y="252" width="50" height="50" stroke="white" stroke-width="3"/>
<rect x="350" y="302" width="50" height="50" stroke="white" stroke-width="3"/>
<rect x="350" y="352" width="50" height="50" stroke="white" stroke-width="3"/>
<rect x="350" y="452" width="50" height="50" transform="rotate(-180 350 452)" stroke="white" stroke-width="3"/>
<rect x="400" y="552" width="50" height="50" transform="rotate(-180 400 552)" stroke="white" stroke-width="3"/>
<rect x="450" y="502" width="50" height="50" transform="rotate(-180 450 502)" stroke="white" stroke-width="3"/>
<rect x="150" y="452" width="50" height="50" stroke="white" stroke-width="3"/>
<rect x="250" y="452" width="50" height="50" stroke="white" stroke-width="3"/>
<rect x="150" y="402" width="50" height="50" stroke="white" stroke-width="3"/>
<rect x="200" y="402" width="50" height="50" stroke="white" stroke-width="3"/>
<rect x="101" y="502" width="50" height="50" stroke="white" stroke-width="3"/>
<rect x="400" y="202" width="50" height="50" stroke="white" stroke-width="3"/>
<rect x="400" y="252" width="50" height="50" rx="25" stroke="white" stroke-width="3"/>
<rect x="450" y="202" width="50" height="50" fill="white" stroke="white" stroke-width="3"/>
<rect x="450" y="252" width="50" height="50" stroke="white" stroke-width="3"/>
<rect x="500" y="202" width="50" height="50" stroke="white" stroke-width="3"/>
<rect x="500" y="252" width="50" height="50" stroke="white" stroke-width="3"/>
<rect x="400" y="302" width="50" height="50" stroke="white" stroke-width="3"/>
<path d="M550 227C550 213.193 561.193 202 575 202V202C588.807 202 600 213.193 600 227V252H550V227Z" stroke="white" stroke-width="3"/>
<path d="M250 377C250 363.193 261.193 352 275 352V352C288.807 352 300 363.193 300 377V402H250V377Z" stroke="white" stroke-width="3"/>
<rect x="550" y="252" width="50" height="50" stroke="white" stroke-width="3"/>
<rect x="600" y="202" width="50" height="50" stroke="white" stroke-width="3"/>
<rect x="600" y="252" width="50" height="50" stroke="white" stroke-width="3"/>
<rect x="650" y="302" width="50" height="50" stroke="white" stroke-width="3"/>
<rect x="700" y="302" width="50" height="50" stroke="white" stroke-width="3"/>
<rect x="700" y="352" width="50" height="50" stroke="white" stroke-width="3"/>
<rect x="750" y="302" width="50" height="50" rx="25" fill="white" stroke="white" stroke-width="3"/>
<rect x="750" y="352" width="50" height="50" stroke="white" stroke-width="3"/>
<rect y="202" width="50" height="50" stroke="white" stroke-width="3"/>
<path d="M50 227C50 213.193 61.1929 202 75 202C88.8071 202 100 213.193 100 227C100 240.807 88.8071 252 75 252H50V227Z" fill="white" stroke="white" stroke-width="3"/>
<rect x="100" y="202" width="50" height="50" stroke="white" stroke-width="3"/>
<path d="M100 277C100 263.193 111.193 252 125 252V252C138.807 252 150 263.193 150 277V302H100V277Z" stroke="white" stroke-width="3"/>
<rect x="150" y="202" width="50" height="50" stroke="white" stroke-width="3"/>
<rect x="150" y="252" width="50" height="50" stroke="white" stroke-width="3"/>
<rect x="200" y="202" width="50" height="50" rx="25" stroke="white" stroke-width="3"/>
<rect x="250" y="202" width="50" height="50" stroke="white" stroke-width="3"/>
<rect x="250" y="252" width="50" height="50" fill="white" stroke="white" stroke-width="3"/>
<rect x="500" y="202" width="50" height="50" transform="rotate(-180 500 202)" stroke="white" stroke-width="3"/>
<rect x="500" y="152" width="50" height="50" transform="rotate(-180 500 152)" stroke="white" stroke-width="3"/>
<rect x="450" y="202" width="50" height="50" transform="rotate(-180 450 202)" stroke="white" stroke-width="3"/>
<rect x="450" y="152" width="50" height="50" transform="rotate(-180 450 152)" stroke="white" stroke-width="3"/>
<rect x="100" y="102" width="50" height="50" stroke="white" stroke-width="3"/>
<rect x="400" y="152" width="50" height="50" transform="rotate(-180 400 152)" stroke="white" stroke-width="3"/>
<rect x="400" y="102" width="50" height="50" transform="rotate(-180 400 102)" stroke="white" stroke-width="3"/>
<rect x="350" y="202" width="50" height="50" transform="rotate(-180 350 202)" stroke="white" stroke-width="3"/>
<path d="M350 127C350 140.807 338.807 152 325 152C311.193 152 300 140.807 300 127L300 102L350 102L350 127Z" fill="white" stroke="white" stroke-width="3"/>
<rect x="300" y="202" width="50" height="50" transform="rotate(-180 300 202)" stroke="white" stroke-width="3"/>
<rect x="300" y="152" width="50" height="50" transform="rotate(-180 300 152)" stroke="white" stroke-width="3"/>
<rect x="250" y="152" width="50" height="50" transform="rotate(-180 250 152)" stroke="white" stroke-width="3"/>
<rect x="200" y="102" width="50" height="50" transform="rotate(-180 200 102)" stroke="white" stroke-width="3"/>
<rect x="200" y="202" width="50" height="50" transform="rotate(-180 200 202)" stroke="white" stroke-width="3"/>
<rect x="200" y="152" width="50" height="50" transform="rotate(-180 200 152)" stroke="white" stroke-width="3"/>
<rect x="100" y="102" width="50" height="50" transform="rotate(-180 100 102)" stroke="white" stroke-width="3"/>
<rect x="150" y="202" width="50" height="50" transform="rotate(-180 150 202)" stroke="white" stroke-width="3"/>
<rect x="50" y="302" width="50" height="50" transform="rotate(-180 50 302)" stroke="white" stroke-width="3"/>
<rect x="50" y="352" width="50" height="50" transform="rotate(-180 50 352)" stroke="white" stroke-width="3"/>
<rect x="50" y="402" width="50" height="50" transform="rotate(-180 50 402)" stroke="white" stroke-width="3"/>
<rect x="100" y="402" width="50" height="50" transform="rotate(-180 100 402)" stroke="white" stroke-width="3"/>
<rect x="200" y="402" width="50" height="50" transform="rotate(-180 200 402)" stroke="white" stroke-width="3"/>
<rect x="250" y="402" width="50" height="50" transform="rotate(-180 250 402)" stroke="white" stroke-width="3"/>
<rect x="200" y="352" width="50" height="50" transform="rotate(-180 200 352)" stroke="white" stroke-width="3"/>
<rect x="150" y="402" width="50" height="50" transform="rotate(-180 150 402)" stroke="white" stroke-width="3"/>
<rect x="150" y="352" width="50" height="50" transform="rotate(-180 150 352)" stroke="white" stroke-width="3"/>
<path d="M350 177C350 163.193 361.193 152 375 152V152C388.807 152 400 163.193 400 177V177C400 190.807 388.807 202 375 202L350 202L350 177Z" stroke="white" stroke-width="3"/>
<path d="M50 427C50 413.193 61.1929 402 75 402V402C88.8071 402 100 413.193 100 427V427C100 440.807 88.8071 452 75 452L50 452L50 427Z" stroke="white" stroke-width="3"/>
<rect x="150" y="102" width="50" height="50" transform="rotate(-180 150 102)" stroke="white" stroke-width="3"/>
<path d="M-4.37114e-06 177C-1.95703e-06 163.193 11.1929 152 25 152V152C38.8071 152 50 163.193 50 177V177C50 190.807 38.8071 202 25 202L-8.74228e-06 202L-4.37114e-06 177Z" stroke="white" stroke-width="3"/>
<rect x="150" y="52" width="50" height="50" transform="rotate(-180 150 52)" stroke="white" stroke-width="3"/>
<rect x="100" y="202" width="50" height="50" transform="rotate(-180 100 202)" stroke="white" stroke-width="3"/>
<rect x="100" y="152" width="50" height="50" transform="rotate(-180 100 152)" fill="white" stroke="white" stroke-width="3"/>
<path d="M200 177C200 163.193 211.193 152 225 152V152C238.807 152 250 163.193 250 177L250 202L200 202L200 177Z" stroke="white" stroke-width="3"/>
<rect x="50" y="152" width="50" height="50" transform="rotate(-180 50 152)" stroke="white" stroke-width="3"/>
<rect x="550" y="552" width="50" height="50" rx="25" transform="rotate(-180 550 552)" stroke="white" stroke-width="3"/>
<rect x="800" y="302" width="50" height="50" transform="rotate(-180 800 302)" stroke="white" stroke-width="3"/>
<rect x="800" y="252" width="50" height="50" transform="rotate(-180 800 252)" stroke="white" stroke-width="3"/>
<rect x="700" y="452" width="50" height="50" transform="rotate(-180 700 452)" stroke="white" stroke-width="3"/>
<path d="M700 277C700 263.193 711.193 252 725 252V252C738.807 252 750 263.193 750 277V302H700V277Z" stroke="white" stroke-width="3"/>
<rect x="750" y="252" width="50" height="50" transform="rotate(-180 750 252)" stroke="white" stroke-width="3"/>
<rect x="700" y="302" width="50" height="50" transform="rotate(-180 700 302)" stroke="white" stroke-width="3"/>
<rect x="700" y="252" width="50" height="50" transform="rotate(-180 700 252)" stroke="white" stroke-width="3"/>
<rect x="650" y="202" width="50" height="50" transform="rotate(-180 650 202)" stroke="white" stroke-width="3"/>
<rect x="600" y="202" width="50" height="50" transform="rotate(-180 600 202)" stroke="white" stroke-width="3"/>
<rect x="600" y="152" width="50" height="50" transform="rotate(-180 600 152)" stroke="white" stroke-width="3"/>
<rect x="550" y="202" width="50" height="50" rx="25" transform="rotate(-180 550 202)" fill="white" stroke="white" stroke-width="3"/>
<rect x="550" y="152" width="50" height="50" transform="rotate(-180 550 152)" stroke="white" stroke-width="3"/>
</g>
</svg>
