<svg width="38" height="38" viewBox="0 0 38 38" fill="none" xmlns="http://www.w3.org/2000/svg">
<rect width="38" height="38" fill="white"/>
<path fill-rule="evenodd" clip-rule="evenodd" d="M19 0C8.50659 0 0 8.50659 0 19C0 29.4934 8.50659 38 19 38C29.4934 38 38 29.4934 38 19C38 8.50659 29.4934 0 19 0ZM14.8226 8.9279C15.9035 8.87871 16.2489 8.86668 19.0009 8.86668H18.9978C21.7507 8.86668 22.0948 8.87871 23.1757 8.9279C24.2545 8.9773 24.9913 9.14809 25.6373 9.39868C26.3044 9.6573 26.8681 10.0035 27.4318 10.5672C27.9954 11.1304 28.3417 11.6958 28.6013 12.3623C28.8504 13.0066 29.0214 13.743 29.0721 14.8218C29.1207 15.9027 29.1333 16.248 29.1333 19.0001C29.1333 21.7522 29.1207 22.0967 29.0721 23.1776C29.0214 24.256 28.8504 24.9926 28.6013 25.6371C28.3417 26.3034 27.9954 26.8687 27.4318 27.432C26.8687 27.9957 26.3042 28.3427 25.6379 28.6015C24.9932 28.8521 24.256 29.0229 23.1772 29.0723C22.0963 29.1215 21.752 29.1336 18.9997 29.1336C16.2478 29.1336 15.9026 29.1215 14.8217 29.0723C13.7432 29.0229 13.0066 28.8521 12.3619 28.6015C11.6958 28.3427 11.1304 27.9957 10.5674 27.432C10.0039 26.8687 9.65771 26.3034 9.39867 25.6369C9.14829 24.9926 8.9775 24.2562 8.92789 23.1774C8.87891 22.0965 8.86666 21.7522 8.86666 19.0001C8.86666 16.248 8.87933 15.9024 8.92768 14.8215C8.97623 13.7432 9.14723 13.0066 9.39846 12.3621C9.65813 11.6958 10.0044 11.1304 10.568 10.5672C11.1313 10.0037 11.6966 9.65751 12.3631 9.39868C13.0074 9.14809 13.7438 8.9773 14.8226 8.9279Z" fill="#68217A"/>
<path fill-rule="evenodd" clip-rule="evenodd" d="M18.0919 10.693C18.2684 10.6927 18.4583 10.6928 18.6632 10.6929L19.0009 10.693C21.7065 10.693 22.0272 10.7027 23.0957 10.7512C24.0837 10.7964 24.6199 10.9615 24.9771 11.1002C25.45 11.2839 25.7871 11.5034 26.1416 11.8581C26.4963 12.2128 26.7158 12.5505 26.8999 13.0234C27.0386 13.3802 27.2039 13.9165 27.2489 14.9045C27.2975 15.9727 27.308 16.2936 27.308 18.9979C27.308 21.7023 27.2975 22.0232 27.2489 23.0914C27.2037 24.0794 27.0386 24.6157 26.8999 24.9725C26.7163 25.4453 26.4963 25.7821 26.1416 26.1365C25.7869 26.4912 25.4502 26.7108 24.9771 26.8944C24.6203 27.0338 24.0837 27.1984 23.0957 27.2436C22.0274 27.2922 21.7065 27.3027 19.0009 27.3027C16.2951 27.3027 15.9744 27.2922 14.9062 27.2436C13.9181 27.198 13.3819 27.0329 13.0245 26.8942C12.5516 26.7106 12.2138 26.491 11.8592 26.1363C11.5045 25.7817 11.2849 25.4447 11.1008 24.9716C10.9621 24.6148 10.7968 24.0786 10.7519 23.0906C10.7033 22.0224 10.6936 21.7015 10.6936 18.9954C10.6936 16.2894 10.7033 15.9702 10.7519 14.9019C10.797 13.9139 10.9621 13.3777 11.1008 13.0205C11.2845 12.5476 11.5045 12.2098 11.8592 11.8551C12.2138 11.5005 12.5516 11.2809 13.0245 11.0968C13.3817 10.9575 13.9181 10.7928 14.9062 10.7474C15.841 10.7052 16.2032 10.6925 18.0919 10.6904V10.693ZM24.4101 12.3756C23.7387 12.3756 23.194 12.9196 23.194 13.5911C23.194 14.2625 23.7387 14.8072 24.4101 14.8072C25.0814 14.8072 25.6261 14.2625 25.6261 13.5911C25.6261 12.9198 25.0814 12.3751 24.4101 12.3751V12.3756ZM13.797 19.0003C13.797 16.1264 16.1269 13.7964 19.0007 13.7963C21.8746 13.7963 24.204 16.1264 24.204 19.0003C24.204 21.8741 21.8748 24.2031 19.0009 24.2031C16.127 24.2031 13.797 21.8741 13.797 19.0003Z" fill="#68217A"/>
<path d="M19.0009 15.6221C20.8663 15.6221 22.3787 17.1343 22.3787 18.9999C22.3787 20.8653 20.8663 22.3777 19.0009 22.3777C17.1353 22.3777 15.623 20.8653 15.623 18.9999C15.623 17.1343 17.1353 15.6221 19.0009 15.6221Z" fill="#68217A"/>
</svg>
