<svg width="39" height="38" viewBox="0 0 39 38" fill="none" xmlns="http://www.w3.org/2000/svg">
<rect width="39" height="38" fill="white"/>
<path fill-rule="evenodd" clip-rule="evenodd" d="M19.5 0C8.73045 0 0 8.50659 0 19C0 29.4934 8.73045 38 19.5 38C30.2696 38 39 29.4934 39 19C39 8.50659 30.2696 0 19.5 0ZM9.36132 15.7366H13.7804V28.6738H9.36132V15.7366ZM14.0715 11.7346C14.0428 10.4662 13.1118 9.5 11.6001 9.5C10.0883 9.5 9.1 10.4662 9.1 11.7346C9.1 12.9768 10.0591 13.9708 11.5427 13.9708H11.571C13.1118 13.9708 14.0715 12.9768 14.0715 11.7346ZM24.6294 15.4328C27.5374 15.4328 29.7175 17.2823 29.7175 21.256L29.7173 28.6738H25.2984V21.7524C25.2984 20.0139 24.6589 18.8276 23.0592 18.8276C21.8383 18.8276 21.1111 19.6273 20.7917 20.3998C20.6749 20.6766 20.6462 21.0623 20.6462 21.449V28.6742H16.2265C16.2265 28.6742 16.2848 16.9509 16.2265 15.737H20.6462V17.5694C21.2327 16.6885 22.2832 15.4328 24.6294 15.4328Z" fill="#68217A"/>
</svg>
