<svg width="43" height="44" viewBox="0 0 43 44" fill="none" xmlns="http://www.w3.org/2000/svg">
<path d="M21.4845 43H22.2577L22.0103 33.6563L22.7216 33.0917C25.9381 33.4305 28.8144 33.7692 32.0309 34.108L31.2268 31.5674C31.1031 31.1157 31.2887 30.6358 31.6598 30.3536L41 23.127L39.0825 22.2519C38.2474 21.9697 38.4639 21.518 38.7732 20.4171L40.1959 15.4771L34.7835 16.5498C34.2577 16.6344 33.8866 16.2957 33.8247 16.0134L33.1134 13.6987L28.7835 18.2717C28.1649 19.0056 26.9278 19.0056 27.3299 17.3119L29.1546 8.05293L26.7113 9.26676C26.0309 9.63373 25.3196 9.69019 24.9485 9.04093L21.4845 3L18.0206 9.04093C17.6495 9.69019 16.9381 9.63373 16.2577 9.26676L13.8144 8.05293L15.6392 17.3119C16.0103 19.0056 14.7732 19.0056 14.1856 18.2717L9.8866 13.6987L9.20619 16.0134C9.1134 16.3239 8.7732 16.6344 8.24742 16.5498L2.83505 15.4771L4.25773 20.4171C4.56701 21.518 4.81443 21.9697 3.94845 22.2519L2 23.127L11.3402 30.3536C11.7113 30.6358 11.8969 31.1157 11.7732 31.5674L10.9691 34.108C14.1856 33.741 17.0619 33.4305 20.2783 33.0917L20.9897 33.6563L20.7113 43H21.4845Z" stroke="#E52A18" stroke-width="2" stroke-miterlimit="10"/>
</svg>
