<svg width="123" height="30" viewBox="0 0 123 30" fill="#FFFFFF" xmlns="http://www.w3.org/2000/svg">
<g>
<path d="M44.76 23.82C44.16 24.12 43.35 24.27 42.33 24.27C39.66 24.27 38.31 22.98 38.31 20.4V12.6H36V10.14H38.31V6.92997L41.43 6.02997V10.11H44.73V12.6H41.43V19.5C41.43 20.31 41.58 20.91 41.88 21.24C42.18 21.6 42.66 21.78 43.35 21.78C43.89 21.78 44.34 21.63 44.73 21.33V23.82H44.76Z" fill="white"/>
<path d="M54.8999 13.11C54.5099 12.81 53.9699 12.66 53.2799 12.66C52.3499 12.66 51.5699 13.08 50.9699 13.92C50.3399 14.76 50.0399 15.9 50.0399 17.34V23.94H46.9199V10.14H50.0399V12.99H50.0999C50.3999 12.03 50.8799 11.25 51.5099 10.71C52.1399 10.17 52.8599 9.89999 53.6399 9.89999C54.2099 9.89999 54.6299 9.98999 54.9299 10.17V13.11H54.8999Z" fill="white"/>
<path d="M68.04 17.91H58.6199C58.6499 19.2 59.0399 20.16 59.7899 20.88C60.5399 21.57 61.5599 21.93 62.8799 21.93C64.3499 21.93 65.7 21.48 66.93 20.61V23.1C65.67 23.88 64.0199 24.3 61.9499 24.3C59.9099 24.3 58.3199 23.67 57.1799 22.41C56.0099 21.15 55.4399 19.38 55.4399 17.1C55.4399 14.94 56.0699 13.2 57.3599 11.85C58.6199 10.5 60.2099 9.80997 62.0999 9.80997C63.9899 9.80997 65.46 10.41 66.48 11.64C67.5 12.84 68.04 14.55 68.04 16.71V17.91ZM65.0099 15.69C65.0099 14.58 64.7399 13.68 64.1999 13.08C63.6899 12.45 62.9699 12.15 62.0399 12.15C61.1399 12.15 60.3899 12.48 59.7599 13.14C59.1299 13.8 58.7399 14.67 58.6199 15.72H65.0099V15.69Z" fill="white"/>
<path d="M82.77 23.97H79.65V16.17C79.65 13.59 78.75 12.3 76.92 12.3C75.96 12.3 75.18 12.66 74.55 13.38C73.92 14.1 73.62 15 73.62 16.08V23.97H70.47V10.14H73.62V12.42H73.68C74.7 10.68 76.2 9.80997 78.15 9.80997C79.65 9.80997 80.79 10.29 81.6 11.28C82.38 12.27 82.8 13.68 82.8 15.51V23.97H82.77Z" fill="white"/>
<path d="M93.3301 23.82C92.7301 24.12 91.9201 24.27 90.9001 24.27C88.2301 24.27 86.8801 22.98 86.8801 20.4V12.6H84.5701V10.14H86.8801V6.92997L90.0001 6.02997V10.11H93.3001V12.6H90.0001V19.5C90.0001 20.31 90.1501 20.91 90.4501 21.24C90.7501 21.6 91.2301 21.78 91.9201 21.78C92.4601 21.78 92.9101 21.63 93.3001 21.33V23.82H93.3301Z" fill="white"/>
<path d="M97.0499 7.22997C96.5399 7.22997 96.0899 7.04997 95.7299 6.71997C95.3699 6.38997 95.1899 5.96997 95.1899 5.45997C95.1899 4.94997 95.3699 4.52997 95.7299 4.16997C96.0899 3.83997 96.5399 3.65997 97.0499 3.65997C97.5899 3.65997 98.0399 3.83997 98.3999 4.16997C98.7599 4.49997 98.9399 4.94997 98.9399 5.45997C98.9399 5.93997 98.7599 6.35997 98.3999 6.71997C98.0099 7.04997 97.5599 7.22997 97.0499 7.22997ZM98.6099 23.97H95.4899V10.14H98.6099V23.97Z" fill="white"/>
<path d="M122.79 23.97H119.67V16.44C119.67 15 119.46 13.95 119.07 13.29C118.65 12.63 117.96 12.33 117 12.33C116.19 12.33 115.5 12.75 114.93 13.56C114.36 14.37 114.06 15.36 114.06 16.5V23.97H110.91V16.17C110.91 13.59 110.01 12.3 108.18 12.3C107.34 12.3 106.65 12.69 106.11 13.47C105.57 14.25 105.3 15.24 105.3 16.47V23.94H102.18V10.14H105.3V12.33H105.36C106.35 10.65 107.82 9.80997 109.71 9.80997C110.67 9.80997 111.51 10.08 112.2 10.59C112.92 11.13 113.4 11.82 113.67 12.66C114.69 10.74 116.22 9.80997 118.26 9.80997C121.29 9.80997 122.82 11.7 122.82 15.45V23.97H122.79Z" fill="white"/>
<path d="M27 3V27H3V3H27ZM30 0H0V30H30V0Z" fill="white"/>
</g>
</svg>
