<svg width="247" height="59" viewBox="0 0 247 59" fill="none" xmlns="http://www.w3.org/2000/svg">
<path d="M89.8078 46.6809C88.6039 47.2689 86.9787 47.5628 84.9322 47.5628C79.575 47.5628 76.8663 45.0348 76.8663 39.9786V24.6927H72.2314V19.8717H76.8663V13.581L83.1264 11.8172V19.8129H89.7476V24.6927H83.1264V38.2149C83.1264 39.8023 83.4273 40.9781 84.0293 41.6248C84.6312 42.3303 85.5943 42.6831 86.9787 42.6831C88.0622 42.6831 88.9651 42.3891 89.7476 41.8012V46.6809H89.8078Z" fill="white"/>
<path d="M110.153 25.6921C109.371 25.1041 108.287 24.8102 106.903 24.8102C105.037 24.8102 103.472 25.6333 102.268 27.2795C101.004 28.9256 100.402 31.1597 100.402 33.9818V46.916H94.1418V19.8716H100.402V25.4569H100.522C101.124 23.5755 102.087 22.047 103.351 20.9887C104.615 19.9304 106.06 19.4013 107.625 19.4013C108.769 19.4013 109.611 19.5777 110.213 19.9304V25.6921H110.153Z" fill="white"/>
<path d="M136.517 35.0988H117.617C117.677 37.6269 118.459 39.5082 119.964 40.9192C121.469 42.2714 123.516 42.9769 126.164 42.9769C129.114 42.9769 131.822 42.0951 134.29 40.3901V45.2698C131.762 46.7984 128.452 47.6215 124.298 47.6215C120.205 47.6215 117.015 46.3869 114.728 43.9176C112.38 41.4483 111.236 37.9796 111.236 33.5114C111.236 29.2784 112.5 25.8684 115.089 23.2228C117.617 20.5771 120.807 19.2249 124.599 19.2249C128.391 19.2249 131.341 20.4008 133.387 22.8112C135.434 25.1629 136.517 28.5141 136.517 32.7471V35.0988ZM130.438 30.7482C130.438 28.5729 129.896 26.8091 128.813 25.6333C127.789 24.3986 126.345 23.8107 124.479 23.8107C122.673 23.8107 121.168 24.4574 119.904 25.7508C118.64 27.0443 117.858 28.7492 117.617 30.807H130.438V30.7482Z" fill="white"/>
<path d="M166.072 46.9748H159.812V31.6888C159.812 26.6327 158.006 24.1047 154.335 24.1047C152.408 24.1047 150.843 24.8102 149.579 26.2212C148.315 27.6322 147.713 29.396 147.713 31.5125V46.9748H141.393V19.8716H147.713V24.3398H147.834C149.88 20.9299 152.89 19.2249 156.802 19.2249C159.812 19.2249 162.099 20.1656 163.725 22.1057C165.29 24.0459 166.132 26.8091 166.132 30.3954V46.9748H166.072Z" fill="white"/>
<path d="M187.26 46.6809C186.056 47.2689 184.431 47.5628 182.385 47.5628C177.027 47.5628 174.319 45.0348 174.319 39.9786V24.6927H169.684V19.8717H174.319V13.581L180.579 11.8172V19.8129H187.2V24.6927H180.579V38.2149C180.579 39.8023 180.88 40.9781 181.482 41.6248C182.084 42.3303 183.047 42.6831 184.431 42.6831C185.515 42.6831 186.417 42.3891 187.2 41.8012V46.6809H187.26Z" fill="white"/>
<path d="M194.724 14.1688C193.701 14.1688 192.798 13.8161 192.076 13.1693C191.353 12.5226 190.992 11.6995 190.992 10.7001C190.992 9.70061 191.353 8.87752 192.076 8.17201C192.798 7.5253 193.701 7.17255 194.724 7.17255C195.808 7.17255 196.711 7.5253 197.433 8.17201C198.155 8.81873 198.516 9.70061 198.516 10.7001C198.516 11.6407 198.155 12.4638 197.433 13.1693C196.65 13.8161 195.747 14.1688 194.724 14.1688ZM197.854 46.9748H191.594V19.8716H197.854V46.9748Z" fill="white"/>
<path d="M246.37 46.9748H240.109V32.218C240.109 29.396 239.688 27.3382 238.906 26.0448C238.063 24.7514 236.678 24.1635 234.752 24.1635C233.127 24.1635 231.743 24.9865 230.599 26.5739C229.455 28.1613 228.853 30.1015 228.853 32.3356V46.9748H222.533V31.6888C222.533 26.6327 220.727 24.1047 217.056 24.1047C215.37 24.1047 213.986 24.869 212.902 26.3976C211.819 27.9262 211.277 29.8663 211.277 32.2768V46.916H205.017V19.8716H211.277V24.1635H211.398C213.384 20.8711 216.333 19.2249 220.125 19.2249C222.052 19.2249 223.737 19.754 225.121 20.7535C226.566 21.8118 227.529 23.164 228.071 24.8102C230.117 21.0475 233.187 19.2249 237.28 19.2249C243.36 19.2249 246.43 22.9288 246.43 30.2778V46.9748H246.37Z" fill="white"/>
<path d="M54.1736 5.87922V52.913H6.01929V5.87922H54.1736ZM60.1929 0H0V58.7922H60.1929V0Z" fill="white"/>
</svg>
